<svg id="ico_kakao" xmlns="http://www.w3.org/2000/svg" xmlns:xlink="http://www.w3.org/1999/xlink" width="40" height="40" viewBox="0 0 40 40">
  <defs>
    <clipPath id="clip-path">
      <rect id="사각형_463049" data-name="사각형 463049" width="16.286" height="20" fill="#fff"/>
    </clipPath>
  </defs>
  <circle id="bg" cx="20" cy="20" r="20" fill="#111"/>
  <g id="그룹_631622" data-name="그룹 631622" transform="translate(12 10)">
    <g id="그룹_631622-2" data-name="그룹 631622" clip-path="url(#clip-path)">
      <path id="패스_1503970" data-name="패스 1503970" d="M13.6,46.021a4.517,4.517,0,0,1,2.159-3.8,4.681,4.681,0,0,0-3.654-1.987c-1.559-.157-3.043.919-3.83.919s-2.01-.893-3.3-.867a4.895,4.895,0,0,0-4.139,2.5c-1.763,3.061-.453,7.6,1.269,10.078.839,1.215,1.839,2.579,3.153,2.53,1.269-.049,1.748-.819,3.279-.819s1.962.819,3.3.8c1.362-.028,2.227-1.243,3.058-2.458a11.094,11.094,0,0,0,1.386-2.847A4.412,4.412,0,0,1,13.6,46.021" transform="translate(0 -35.398)" fill="#fff"/>
      <path id="패스_1503971" data-name="패스 1503971" d="M70.524,3.191A4.386,4.386,0,0,0,71.565,0a4.479,4.479,0,0,0-2.944,1.514,4.19,4.19,0,0,0-1.063,3.1,3.712,3.712,0,0,0,2.965-1.418" transform="translate(-59.441 0.001)" fill="#fff"/>
    </g>
  </g>
</svg>
