<svg id="ico_kakao" xmlns="http://www.w3.org/2000/svg" width="40" height="40" viewBox="0 0 40 40">
  <circle id="bg" cx="20" cy="20" r="20" fill="#fee500"/>
  <g id="kakaotalk" transform="translate(11 11)">
    <path id="패스_2472" data-name="패스 2472" d="M76.01,74.3H77.3l-.643-1.828Z" transform="translate(-68.105 -64.715)" fill="#111"/>
    <path id="합치기_2" data-name="합치기 2" d="M18846.076,19238.963c-.121-.066-.1-.25-.1-.25.039-.246.941-3.355,1.105-3.926-3.051-1.512-5.08-4.191-5.08-7.242,0-4.717,4.854-8.547,10.84-8.547s10.836,3.83,10.836,8.547-4.854,8.547-10.836,8.547a14.288,14.288,0,0,1-1.922-.131c-.627.434-4.244,2.975-4.586,3.018a.324.324,0,0,1-.113.021A.278.278,0,0,1,18846.076,19238.963Z" transform="translate(-18844.002 -19219.998)" fill="#111"/>
  </g>
</svg>
